<svg xmlns="http://www.w3.org/2000/svg" fill="none" viewBox="0 0 14 14">
    <path fill="#EB5202" d="M13.3 3.5h-1.96c.35-.35.56-.84.56-1.4C11.9.91 10.99 0 9.8 0 9.1 0 7.84.63 7 1.47 6.16.63 4.9 0 4.2 0 3.01 0 2.1.91 2.1 2.1c0 .56.21 1.05.56 1.4H.7c-.42 0-.7.28-.7.7v1.96c0 .07.07.14.14.14h5.88c.14 0 .28-.14.28-.28V3.78c0-.14.14-.28.28-.28h.84c.14 0 .28.14.28.28v2.24c0 .14.14.28.28.28h5.88c.07 0 .14-.07.14-.14V4.2c0-.42-.28-.7-.7-.7zm-9.1-.7c-.42 0-.7-.28-.7-.7 0-.42.28-.7.7-.7.42 0 1.68.84 2.03 1.26-.21.07-2.03.14-2.03.14zm5.6 0s-1.82-.07-2.03-.14C8.19 2.17 9.38 1.4 9.8 1.4c.42 0 .7.28.7.7 0 .42-.28.7-.7.7zM6.02 7.7H.84c-.07 0-.14.07-.14.14v5.46c0 .42.28.7.7.7h4.62c.14 0 .28-.14.28-.28V7.98c0-.14-.14-.28-.28-.28zM13.16 7.7H7.98c-.14 0-.28.14-.28.28v5.74c0 .14.14.28.28.28h4.62c.42 0 .7-.28.7-.7V7.84c0-.07-.07-.14-.14-.14z"/>
</svg>