<?xml version="1.0" encoding="UTF-8"?>
<svg fill="none" viewBox="0 0 11 15" xmlns="http://www.w3.org/2000/svg">
<path d="m1.6686 15h7.5583l0.95059-8.958h-9.4166l0.90772 8.958zm5.8909-12.772v-1.7164c0-0.28286-0.22714-0.51171-0.50657-0.51171h-3.2096c-0.27986 0-0.50614 0.22929-0.50614 0.51171v1.6881c-1.0843 0.12343-2.2127 0.36257-3.3373 0.771v1.5763h10.874v-1.6183s-1.3273-0.46243-3.315-0.70072h8.5e-4zm-1.0088-0.09428c-0.70372-0.04757-1.4623-0.06043-2.2582-0.01457v-0.90515c0-0.14057 0.11143-0.25543 0.252-0.25543h1.752c0.14143 0 0.25415 0.11486 0.25415 0.25543v0.91972z" clip-rule="evenodd" fill="#575855" fill-rule="evenodd"/>
</svg>
